<svg width="17" height="11" viewBox="0 0 17 11" fill="none" xmlns="http://www.w3.org/2000/svg">
<path fill-rule="evenodd" clip-rule="evenodd" d="M6.70709 8.70724L0 2.00015L1.41421 0.585938L8.12131 7.29303L14.6957 0.718678L16.1099 2.13289L8.11957 10.1232L6.70535 8.70898L6.70709 8.70724Z" fill="white"/>
<path fill-rule="evenodd" clip-rule="evenodd" d="M6.70709 8.70724L0 2.00015L1.41421 0.585938L8.12131 7.29303L14.6957 0.718678L16.1099 2.13289L8.11957 10.1232L6.70535 8.70898L6.70709 8.70724Z" fill="white"/>
<path fill-rule="evenodd" clip-rule="evenodd" d="M6.70709 8.70724L0 2.00015L1.41421 0.585938L8.12131 7.29303L14.6957 0.718678L16.1099 2.13289L8.11957 10.1232L6.70535 8.70898L6.70709 8.70724Z" fill="white"/>
<path fill-rule="evenodd" clip-rule="evenodd" d="M6.70709 8.70724L0 2.00015L1.41421 0.585938L8.12131 7.29303L14.6957 0.718678L16.1099 2.13289L8.11957 10.1232L6.70535 8.70898L6.70709 8.70724Z" fill="white"/>
</svg>
