<svg width="20" height="18" viewBox="0 0 20 18" fill="none" xmlns="http://www.w3.org/2000/svg">
<path fill-rule="evenodd" clip-rule="evenodd" d="M10 2.182C9.66329 1.74116 9.25937 1.35151 8.80092 1.02752C8.08594 0.522241 7.25884 0.191149 6.38788 0.0615625C5.51691 -0.0680241 4.62704 0.00760983 3.79171 0.282223C2.95637 0.556836 2.19952 1.02255 1.58361 1.64095C0.967701 2.25934 0.510388 3.01268 0.24941 3.83879C-0.0115677 4.66491 -0.0687276 5.54012 0.0826473 6.3922C0.234022 7.24428 0.589592 8.0488 1.12001 8.73937L1.12193 8.73795L10.0001 18L18.8874 8.72837L18.8881 8.72888C19.4146 8.03992 19.7675 7.23832 19.9178 6.3897C20.0682 5.54108 20.0117 4.66957 19.753 3.8465C19.4944 3.02343 19.0409 2.2722 18.4297 1.65432C17.8185 1.03643 17.0669 0.569444 16.2366 0.291592C15.4062 0.0137391 14.5206 -0.0670834 13.6523 0.0557403C12.784 0.178564 11.9577 0.501542 11.241 0.998236C10.7654 1.32779 10.3471 1.72761 10 2.182Z" fill="white"/>
</svg>
