<svg width="20" height="18" viewBox="0 0 20 18" fill="none" xmlns="http://www.w3.org/2000/svg">
<g clip-path="url(#clip0_1_4)">
<path fill-rule="evenodd" clip-rule="evenodd" d="M9.99999 2.18201C9.66328 1.74117 9.25936 1.35152 8.80091 1.02753C8.08593 0.522247 7.25883 0.191155 6.38787 0.0615685C5.5169 -0.0680181 4.62703 0.0076158 3.7917 0.282229C2.95636 0.556842 2.19951 1.02256 1.5836 1.64096C0.967693 2.25935 0.51038 3.01269 0.249402 3.8388C-0.0115761 4.66492 -0.068736 5.54013 0.0826389 6.39221C0.234014 7.24429 0.589584 8.04881 1.12 8.73938L1.12192 8.73796L10.0001 18L18.8874 8.72838C19.4139 8.03942 19.7675 7.23833 19.9178 6.38971C20.0682 5.54109 20.0117 4.66958 19.753 3.84651C19.4944 3.02344 19.0409 2.27221 18.4297 1.65433C17.8185 1.03644 17.0669 0.56945 16.2366 0.291598C15.4062 0.0137451 14.5206 -0.0670774 13.6523 0.0557463C12.784 0.17857 11.9577 0.501548 11.241 0.998242C10.7654 1.3278 10.3471 1.72762 9.99999 2.18201Z" fill="#5061FF"/>
</g>
<defs>
<clipPath id="clip0_1_4">
<rect width="20" height="18" fill="white"/>
</clipPath>
</defs>
</svg>
